<svg xmlns="http://www.w3.org/2000/svg" fill="none" viewBox="0 0 32 36" height="36" width="32">
<path stroke-linejoin="round" stroke-linecap="round" stroke-width="1.5" stroke="#0C3D3D" d="M1 34.6668H16M14.3333 8.42022C15.3987 8.14601 16.5157 8.00016 17.6667 8.00016C25.0305 8.00016 31 13.9697 31 21.3335C31 26.9291 27.5531 31.7197 22.6667 33.6976M5.16667 19.6668H11.8333C12.6078 19.6668 12.995 19.6668 13.317 19.7309C14.6393 19.9939 15.6729 21.0276 15.936 22.3499C16 22.6719 16 23.0591 16 23.8335C16 24.6079 16 24.9951 15.936 25.3171C15.6729 26.6394 14.6393 27.6731 13.317 27.9361C12.995 28.0002 12.6078 28.0002 11.8333 28.0002H5.16667C4.39224 28.0002 4.00503 28.0002 3.68303 27.9361C2.36073 27.6731 1.32707 26.6394 1.06405 25.3171C1 24.9951 1 24.6079 1 23.8335C1 23.0591 1 22.6719 1.06405 22.3499C1.32707 21.0276 2.36073 19.9939 3.68303 19.7309C4.00503 19.6668 4.39224 19.6668 5.16667 19.6668ZM2.66667 7.16683V19.6668H14.3333V7.16683C14.3333 3.94517 11.7217 1.3335 8.5 1.3335C5.27834 1.3335 2.66667 3.94517 2.66667 7.16683Z"></path>
</svg>
