<svg width="148" height="54" viewBox="0 0 148 54" fill="none" xmlns="http://www.w3.org/2000/svg">
<path d="M59.3384 53.2055H58.5884V53.25H6.90997C3.88224 53.2082 1.42725 50.7544 1.42725 47.7587V6.20426C1.42725 3.20393 3.88577 0.75 6.9051 0.75H59.3384H143C145.255 0.75 147.121 2.60675 147.121 4.89224V49.0633C147.121 51.3525 145.288 53.2055 143 53.2055H59.3384Z" stroke="#0F2E2F" stroke-width="1.5"></path>
<path fill-rule="evenodd" clip-rule="evenodd" d="M7.42871 26.3258C7.42871 14.0226 17.4072 4.05078 29.7165 4.05078C41.9811 4.05078 52.0043 14.0671 52.0043 26.3258C52.0043 38.629 42.0258 48.6008 29.7165 48.6008C17.4072 48.6008 7.42871 38.629 7.42871 26.3258ZM50.6931 26.3257C50.6931 14.7501 41.3029 5.36489 29.7159 5.36489C18.0843 5.36489 8.69404 14.7427 8.73872 26.3257C8.73872 37.9087 18.1289 47.2864 29.7159 47.2864C41.3029 47.2864 50.6931 37.9012 50.6931 26.3257Z" fill="#0F2E2F"></path>
<path d="M15.2114 35.4135V17.4078H18.1752L21.4741 26.1174V17.3633H24.5197V35.2798H21.8985L18.5996 25.8575V35.3689L15.2114 35.4135Z" fill="#0F2E2F"></path>
<path d="M30.3048 35.6214C27.2145 35.6214 25.5241 33.4681 25.6507 30.0452H28.8676C28.8676 31.7752 28.9123 32.9632 30.3495 32.9632C31.0718 32.9632 31.4069 32.243 31.4069 31.0179C31.4069 27.8028 25.9485 27.4242 25.9485 22.1004C25.9485 19.3086 27.2145 17.3262 30.4314 17.3262C33.0526 17.3262 34.4898 18.5513 34.5792 22.8207H31.7048C31.7048 21.0461 31.3697 19.9472 30.3942 19.9472C29.5453 19.9472 28.9123 20.6229 29.1283 21.848C29.6346 25.1001 34.7505 25.7758 34.8398 30.7654C34.9143 34.9902 31.7048 35.6214 30.3048 35.6214Z" fill="#0F2E2F"></path>
<path d="M36.1875 35.3247V17.4082H43.6341V20.1555H39.7395V24.759H42.532V27.8478H39.7395V35.3247H36.1875Z" fill="#0F2E2F"></path>
<path fill-rule="evenodd" clip-rule="evenodd" d="M43.5831 34.2716C43.5831 33.5514 42.9948 33.002 42.3172 33.002C41.6396 33.002 41.0885 33.5143 41.0513 34.2716C41.0513 34.9919 41.647 35.5413 42.3172 35.5413C42.9874 35.5413 43.5831 34.9919 43.5831 34.2716ZM43.3307 34.2715C43.3307 34.8581 42.9137 35.3258 42.3179 35.3258C41.7669 35.3258 41.3052 34.8655 41.2605 34.2715C41.2605 33.6849 41.7222 33.2171 42.3179 33.2171C42.869 33.2171 43.3307 33.6775 43.3307 34.2715ZM41.8633 33.514H42.4069C42.742 33.514 42.9133 33.6402 42.9133 33.9372C42.9133 34.1897 42.742 34.3159 42.5335 34.3159L42.958 34.947H42.7048L42.325 34.3159H42.0718V34.947H41.8633V33.514ZM42.318 34.1452H42.0648V33.6848H42.3627C42.5265 33.6848 42.6978 33.6848 42.6978 33.8927C42.6978 34.1452 42.5265 34.1452 42.318 34.1452Z" fill="#0F2E2F"></path>
<path d="M76.4061 15.6331V17.5339C76.4061 19.8134 75.1402 21.1276 72.6828 21.1276C70.2254 21.1276 68.9595 19.8208 68.9595 17.5339V10.1386C68.9595 7.85915 70.2254 6.54492 72.6828 6.54492C75.1402 6.54492 76.4061 7.85172 76.4061 10.1386V11.5345H74.0381V10.0124C74.0381 8.99517 73.5317 8.6165 72.7722 8.6165C71.9679 8.6165 71.5062 8.99517 71.5062 10.0124V17.7047C71.5062 18.7219 72.0126 19.1006 72.7722 19.1006C73.5764 19.1006 74.0381 18.7219 74.0381 17.7047V15.6777H76.4061V15.6331Z" fill="#0F2E2F"></path>
<path d="M80.6371 12.7162H84.0625V14.7432H80.6371V18.9235H84.9487V20.9505H78.1797V6.7168H84.9487V8.74382H80.6371V12.7162Z" fill="#0F2E2F"></path>
<path fill-rule="evenodd" clip-rule="evenodd" d="M91.8789 20.9298C91.882 20.9391 91.8851 20.9485 91.8883 20.9579H94.3755C94.167 20.4085 94.1223 19.9036 94.1223 19.2279V17.0301C94.1223 15.5525 93.6978 14.4982 92.4691 14.0304V13.9859C93.6159 13.5181 94.1223 12.59 94.1223 11.1124V10.0135C94.1223 7.8157 93.0202 6.7168 90.4437 6.7168H86.6831V20.9579H89.1777V15.1664H90.0266C91.1734 15.1664 91.6798 15.6788 91.6798 16.9856V19.2279C91.6798 20.3355 91.7577 20.5679 91.8789 20.9298ZM89.1769 13.1393V8.74367H90.3684C91.2545 8.74367 91.6343 9.20402 91.6343 10.2212V11.6171C91.6343 12.7606 91.0833 13.1393 90.1524 13.1393H89.1769Z" fill="#0F2E2F"></path>
<path d="M95.269 6.7168H102.969V8.74382H100.348V20.9579H97.853V8.74382H95.2765V6.7168H95.269Z" fill="#0F2E2F"></path>
<path d="M104.28 6.7168H106.774V20.9579H104.28V6.7168Z" fill="#0F2E2F"></path>
<path d="M111.258 13.0577H114.475V15.0848H111.258V20.9579H108.808V6.7168H115.406V8.74382H111.303V13.0577H111.258Z" fill="#0F2E2F"></path>
<path d="M116.798 6.7168H119.292V20.9579H116.798V6.7168Z" fill="#0F2E2F"></path>
<path d="M123.775 12.7162H127.201V14.7432H123.775V18.9235H128.087V20.9505H121.318V6.7168H128.087V8.74382H123.775V12.7162Z" fill="#0F2E2F"></path>
<path fill-rule="evenodd" clip-rule="evenodd" d="M133.798 6.7168H129.866V20.9134H133.798C136.293 20.9134 137.521 19.6883 137.521 17.4088V10.2214C137.521 7.94192 136.293 6.7168 133.798 6.7168ZM132.324 18.9308V8.74367H133.717C134.521 8.74367 134.983 9.12234 134.983 10.1396V17.5349C134.983 18.5521 134.521 18.9308 133.717 18.9308H132.324Z" fill="#0F2E2F"></path>
<path d="M63.8003 39.5936H67.397V39.8906C67.397 40.737 67.6055 41.4127 68.0747 41.9621C68.4991 42.467 69.0874 42.7195 69.8544 42.7195C70.6586 42.7195 71.2469 42.467 71.7161 41.9993C72.1778 41.5315 72.3937 40.8558 72.3937 40.0539C72.3937 38.7471 71.4629 37.8116 69.6012 37.225C69.348 37.1433 69.1768 37.0988 69.0502 37.0542C67.4864 36.5493 66.347 35.8736 65.58 34.9381C64.8205 34.0471 64.4407 32.9111 64.4407 31.5152C64.4407 29.6144 64.9471 28.0922 66.0045 26.9488C67.0619 25.8053 68.4172 25.2188 70.1523 25.2188C71.7608 25.2188 73.0714 25.7237 74.0469 26.7409C75.0224 27.7581 75.5288 29.1911 75.6553 31.0548H72.1033V30.884C72.1033 30.2529 71.8948 29.7035 71.5076 29.3174C71.1278 28.9387 70.6214 28.7234 69.9885 28.7234C69.3555 28.7234 68.8491 28.9313 68.4693 29.3545C68.0896 29.7777 67.9183 30.3272 67.9183 31.0474C67.9183 31.3444 67.963 31.5968 68.0449 31.8493C68.1268 32.0572 68.2534 32.2725 68.4247 32.4804C68.8044 32.9036 69.6087 33.2823 70.8374 33.6239C71.3884 33.7946 71.8129 33.8763 72.1033 34.0025C73.4586 34.4703 74.516 35.146 75.149 36.0296C75.8266 36.9206 76.1245 38.0566 76.1245 39.4079C76.1245 41.4795 75.5288 43.1724 74.3894 44.4347C73.2501 45.7043 71.7235 46.3355 69.8246 46.3355C68.0449 46.3355 66.6077 45.7043 65.513 44.5163C64.396 43.2318 63.845 41.6206 63.8003 39.5936H63.8003Z" fill="#0F2E2F"></path>
<path fill-rule="evenodd" clip-rule="evenodd" d="M78.4839 45.8906H82.4157V45.8831H82.4604V38.0646H83.8976C86.0497 38.0646 87.7401 37.478 89.0134 36.3346C90.2868 35.1911 90.9198 33.6319 90.9198 31.6865C90.9198 30.6322 90.6591 29.6595 90.1975 28.7314C89.7358 27.7958 89.1028 27.0385 88.2539 26.489C87.7847 26.192 87.1965 25.9396 86.4741 25.8134C85.7146 25.6871 84.7391 25.6055 83.4731 25.6055H78.4839V45.8906ZM83.4283 34.6939H82.4156H82.3709V29.1548H83.3837C84.523 29.1548 85.4092 29.3627 85.9602 29.8305C86.5113 30.2983 86.8091 30.974 86.8091 31.9021C86.8091 32.8302 86.5187 33.5059 85.923 33.9737C85.3719 34.4414 84.5304 34.6939 83.4283 34.6939Z" fill="#0F2E2F"></path>
<path fill-rule="evenodd" clip-rule="evenodd" d="M92.5206 32.5773C92.2228 33.5945 92.0962 34.6489 92.0962 35.7478C92.0962 37.1437 92.3941 38.4579 92.8483 39.7276C93.31 40.9898 94.0323 42.0887 94.9631 43.106C95.9387 44.1603 97.0408 44.9622 98.3067 45.5117C99.5801 46.0611 100.973 46.3136 102.454 46.3136C103.854 46.3136 105.21 46.0166 106.476 45.4671C107.749 44.9177 108.844 44.1158 109.819 43.0985C110.75 42.1259 111.472 40.9898 111.979 39.7202C112.448 38.4134 112.701 37.062 112.701 35.6216C112.701 34.2257 112.403 32.9189 111.897 31.6492C111.39 30.3795 110.623 29.2435 109.611 28.2263C108.635 27.2536 107.541 26.4888 106.312 25.9839C105.083 25.479 103.773 25.2266 102.462 25.2266C100.682 25.2266 99.0365 25.6052 97.5546 26.4071C96.0727 27.209 94.8068 28.3451 93.8313 29.7855C93.243 30.6765 92.8185 31.6046 92.5206 32.5773ZM96.6237 38.0343C96.3259 37.2769 96.1993 36.475 96.1993 35.584C96.1993 33.8466 96.8322 32.369 98.0237 31.1513C99.2077 29.9262 100.727 29.3322 102.462 29.3322C104.152 29.3322 105.589 29.9262 106.773 31.1513C107.958 32.3764 108.553 33.8614 108.553 35.5915C108.553 37.4923 107.958 39.0515 106.773 40.3212C105.589 41.5909 104.108 42.222 102.373 42.222C101.524 42.222 100.719 42.0512 99.9598 41.6725C99.2003 41.2864 98.5226 40.7815 97.8897 40.1059C97.346 39.4747 96.9216 38.7916 96.6237 38.0343Z" fill="#0F2E2F"></path>
<path fill-rule="evenodd" clip-rule="evenodd" d="M119.039 45.8906H119.083V45.898H119.039V45.8906ZM115.151 45.8906H119.039V36.3866L124.199 45.8089H128.89L123.901 37.9458C125.338 37.6488 126.522 36.9731 127.371 35.8742C128.213 34.8199 128.637 33.4685 128.637 31.9019C128.637 30.6396 128.347 29.4962 127.751 28.5235C127.163 27.5879 126.314 26.8306 125.175 26.2811C124.623 26.0732 123.991 25.9025 123.268 25.7762C122.509 25.65 121.407 25.6055 119.887 25.6055H115.151V45.8906ZM119.932 35.4959H119.09V28.9396H120.527C121.964 28.9396 123.067 29.1847 123.744 29.697C124.422 30.2093 124.757 31.0112 124.757 32.0656C124.757 33.1645 124.333 34.0109 123.528 34.6049C122.724 35.1989 121.495 35.4959 119.932 35.4959Z" fill="#0F2E2F"></path>
<path d="M141.118 25.6504V29.1995H137.358V45.8909H133.463V29.1995H129.703V25.6504L141.118 25.6504Z" fill="#0F2E2F"></path>
<path d="M59.4198 0V54" stroke="#0F2E2F" stroke-width="1.5"></path>
</svg>
