<svg xmlns="http://www.w3.org/2000/svg" fill="none" viewBox="0 0 40 40" height="40" width="40">
<path stroke-linecap="round" stroke-width="1.5" stroke="#0C3D3D" d="M34 3H28.7214H8C5.79086 3 4 4.79086 4 7V7C4 9.20914 5.79086 11 8 11H28.7214H31.4138"></path>
<path stroke-width="1.5" stroke="#0C3D3D" d="M32 19H29.25H8C5.79086 19 4 20.7909 4 23V23C4 25.2091 5.79086 27 8 27H29.25H32"></path>
<path stroke-linecap="round" stroke-width="1.5" stroke="#0C3D3D" d="M8 11H10.75H32C34.2091 11 36 12.7909 36 15V15C36 17.2091 34.2091 19 32 19H10.75H8"></path>
<path fill="#0C3D3D" d="M19 35.75C18.5858 35.75 18.25 35.4142 18.25 35C18.25 34.5858 18.5858 34.25 19 34.25V35.75ZM31 27.75H9.75V26.25H31V27.75ZM9.75 27.75H7V26.25H9.75V27.75ZM19 34.25H31V35.75H19V34.25ZM35.75 31C35.75 33.6234 33.6234 35.75 31 35.75V34.25C32.7949 34.25 34.25 32.7949 34.25 31H35.75ZM34.25 31C34.25 29.2051 32.7949 27.75 31 27.75V26.25C33.6234 26.25 35.75 28.3766 35.75 31H34.25Z"></path>
<path stroke-linejoin="round" stroke-linecap="round" stroke-width="1.5" stroke="#0C3D3D" d="M19 35C18.75 35 18.1 35 17.5 35C16.75 35 16 35.3333 16 37"></path>
</svg>
