<svg xmlns="http://www.w3.org/2000/svg" fill="none" viewBox="0 0 40 40" height="40" width="40">
<path fill="#0C3D3D" d="M5.96062 11.3551C6.2194 11.0317 6.16699 10.5597 5.84356 10.3009C5.52014 10.0422 5.04816 10.0946 4.78938 10.418L5.96062 11.3551ZM7.38127 8.09107C7.32781 8.50181 7.61744 8.87814 8.02819 8.9316L14.7217 9.80292C15.1325 9.85639 15.5088 9.56675 15.5623 9.15601C15.6157 8.74526 15.3261 8.36894 14.9153 8.31547L8.96554 7.54097L9.74004 1.59116C9.79351 1.18042 9.50387 0.804095 9.09313 0.750627C8.68238 0.697158 8.30606 0.986791 8.25259 1.39754L7.38127 8.09107ZM32.1108 15.3946C32.2597 15.7811 32.6938 15.9738 33.0803 15.8249C33.4668 15.676 33.6595 15.2419 33.5106 14.8554L32.1108 15.3946ZM34.1225 17.7689C33.7878 17.5249 33.3187 17.5985 33.0747 17.9333L29.0993 23.3884C28.8553 23.7232 28.929 24.1923 29.2637 24.4363C29.5985 24.6802 30.0676 24.6066 30.3116 24.2719L33.8452 19.4228L38.6943 22.9565C39.029 23.2005 39.4982 23.1269 39.7421 22.7921C39.9861 22.4574 39.9124 21.9882 39.5777 21.7443L34.1225 17.7689ZM11.3577 36.0801C11.7471 35.9389 11.9484 35.5088 11.8072 35.1194L9.50687 28.7735C9.36571 28.3841 8.93559 28.1828 8.54617 28.324C8.15675 28.4651 7.9555 28.8952 8.09666 29.2847L10.1414 34.9255L4.50059 36.9703C4.11118 37.1114 3.90992 37.5415 4.05109 37.931C4.19225 38.3204 4.62237 38.5216 5.01178 38.3805L11.3577 36.0801ZM16.2061 36.0348C15.7943 35.99 15.4242 36.2875 15.3794 36.6993C15.3346 37.1111 15.6321 37.4812 16.0439 37.526L16.2061 36.0348ZM33.125 20.875C33.125 29.2973 26.2973 36.125 17.875 36.125V37.625C27.1258 37.625 34.625 30.1258 34.625 20.875H33.125ZM2.625 20.875C2.625 17.2729 3.87292 13.9644 5.96062 11.3551L4.78938 10.418C2.49657 13.2836 1.125 16.9202 1.125 20.875H2.625ZM8.58244 8.78223C11.1553 6.80208 14.3766 5.625 17.875 5.625V4.125C14.0342 4.125 10.4934 5.41863 7.66756 7.59353L8.58244 8.78223ZM17.875 5.625C24.3644 5.625 29.9089 9.67866 32.1108 15.3946L33.5106 14.8554C31.093 8.57984 25.0052 4.125 17.875 4.125V5.625ZM32.9399 18.4913C33.0617 19.2675 33.125 20.0636 33.125 20.875H34.625C34.625 19.9855 34.5556 19.1116 34.4218 18.2587L32.9399 18.4913ZM11.42 34.6957C6.22279 32.2639 2.625 26.9889 2.625 20.875H1.125C1.125 27.5926 5.07949 33.3851 10.7843 36.0543L11.42 34.6957ZM17.875 36.125C17.3108 36.125 16.754 36.0944 16.2061 36.0348L16.0439 37.526C16.6455 37.5914 17.2565 37.625 17.875 37.625V36.125Z"></path>
</svg>
