<svg xmlns="http://www.w3.org/2000/svg" fill="none" viewBox="0 0 40 40" height="40" width="40">
<path stroke-linejoin="round" stroke-linecap="round" stroke-width="1.5" stroke="#0C3D3D" d="M39.25 20C39.25 30.6315 30.6315 39.25 20 39.25C9.36852 39.25 0.75 30.6315 0.75 20C0.75 9.36852 9.36852 0.75 20 0.75C30.6315 0.75 39.25 9.36852 39.25 20Z"></path>
<mask fill="white" id="path-2-inside-1_2333_19350">
<path d="M20.4312 32.4999C20.4312 32.4999 20.4312 32.4999 20.4312 32.4999C20.4313 32.4999 20.4313 32.4999 20.4314 32.5C20.4314 32.5 20.4314 32.4999 20.4314 32.4999C20.4314 32.4999 20.4314 32.4999 20.4314 32.4999C22.8453 32.146 29.4819 28.6812 30.9299 22.6712C31.4557 21.182 31.2258 15.3069 30.9983 11.7851C30.9628 11.2355 30.4846 10.8212 29.9347 10.7908C27.835 10.6747 24.0904 9.87686 20.4314 7.25658C20.4314 7.25656 20.4314 7.25652 20.4314 7.25649V7.25644C20.4314 7.25636 20.4313 7.25632 20.4313 7.25636C20.4312 7.25639 20.4312 7.25639 20.4311 7.25636C20.4311 7.25632 20.431 7.25636 20.431 7.25644V7.25649C20.431 7.25652 20.431 7.25656 20.431 7.25658C16.772 9.87686 13.0274 10.6747 10.9277 10.7908C10.3778 10.8212 9.89956 11.2355 9.86407 11.7851C9.63663 15.3069 9.40667 21.182 9.9325 22.6712C11.3805 28.6812 18.0171 32.146 20.431 32.4999C20.431 32.4999 20.431 32.4999 20.431 32.4999C20.431 32.4999 20.431 32.5 20.431 32.5C20.4311 32.4999 20.4311 32.4999 20.4312 32.4999Z" clip-rule="evenodd" fill-rule="evenodd"></path>
</mask>
<path mask="url(#path-2-inside-1_2333_19350)" fill="#0C3D3D" d="M30.9299 22.6712L29.5155 22.1718L29.4897 22.2447L29.4716 22.3198L30.9299 22.6712ZM9.9325 22.6712L11.3908 22.3198L11.3727 22.2447L11.3469 22.1718L9.9325 22.6712ZM20.431 32.5L20.6456 33.9845L20.431 32.5ZM10.9277 10.7908L10.8449 9.2931L10.9277 10.7908ZM9.86407 11.7851L8.36718 11.6885L9.86407 11.7851ZM20.431 7.25658L21.3043 8.47612L20.431 7.25658ZM30.9983 11.7851L29.5014 11.8818L30.9983 11.7851ZM20.4314 32.4999L20.2138 31.0158L20.4314 32.4999ZM20.431 32.4999L20.2134 33.984L20.431 32.4999ZM20.4314 32.5L20.2184 33.9848L20.4314 32.5ZM20.4314 7.25658L19.5581 8.47612L20.4314 7.25658ZM20.4312 32.4999L20.2185 33.9848L20.4312 32.4999ZM20.4312 32.4999L20.6451 33.9846L20.4312 32.4999ZM20.2185 33.9848L20.2184 33.9848L20.6443 31.0151L20.6439 31.0151L20.2185 33.9848ZM29.4716 22.3198C28.8545 24.8811 27.105 26.9841 25.1234 28.5214C23.1125 30.0815 21.0867 30.8878 20.2138 31.0158L20.649 33.984C22.1901 33.7581 24.6894 32.6551 26.9623 30.8918C29.2645 29.1057 31.5572 26.4713 32.3882 23.0225L29.4716 22.3198ZM29.5014 11.8818C29.6141 13.6269 29.7268 15.9467 29.7467 18.0048C29.7566 19.0354 29.743 19.9811 29.6971 20.7475C29.6478 21.5695 29.5686 22.0213 29.5155 22.1718L32.3443 23.1706C32.5541 22.5765 32.6433 21.7354 32.6917 20.9269C32.7435 20.0629 32.7568 19.0405 32.7465 17.9759C32.726 15.8438 32.6099 13.4651 32.4952 11.6885L29.5014 11.8818ZM19.5581 8.47612C23.4852 11.2884 27.5157 12.1594 29.8519 12.2885L30.0175 9.2931C28.1542 9.19008 24.6957 8.46537 21.3048 6.03704L19.5581 8.47612ZM21.9314 7.25649V7.25644H18.9314V7.25649H21.9314ZM21.931 7.25649V7.25644H18.931V7.25649H21.931ZM19.5576 6.03704C16.1667 8.46537 12.7082 9.19008 10.8449 9.2931L11.0105 12.2885C13.3466 12.1594 17.3772 11.2884 21.3043 8.47612L19.5576 6.03704ZM8.36718 11.6885C8.25245 13.4651 8.13643 15.8438 8.11588 17.9759C8.10562 19.0405 8.11892 20.0629 8.17068 20.9269C8.2191 21.7354 8.3083 22.5765 8.51809 23.1706L11.3469 22.1718C11.2938 22.0213 11.2145 21.5695 11.1653 20.7475C11.1194 19.9811 11.1058 19.0354 11.1157 18.0048C11.1356 15.9467 11.2482 13.6269 11.3609 11.8818L8.36718 11.6885ZM8.47423 23.0225C9.30517 26.4713 11.5979 29.1057 13.9001 30.8918C16.173 32.6551 18.6723 33.7581 20.2134 33.984L20.6486 31.0158C19.7757 30.8878 17.7499 30.0815 15.739 28.5214C13.7574 26.9841 12.0079 24.8811 11.3908 22.3198L8.47423 23.0225ZM20.2173 31.0153L20.2164 31.0154L20.6456 33.9845L20.6451 33.9846L20.2173 31.0153ZM18.931 32.4999C18.931 33.4122 19.7396 34.1155 20.6456 33.9845L20.2164 31.0154C21.1224 30.8844 21.931 31.5877 21.931 32.4999H18.931ZM10.8449 9.2931C9.64753 9.3593 8.45842 10.2758 8.36718 11.6885L11.3609 11.8818C11.3514 12.0296 11.2808 12.1404 11.2147 12.2007C11.1536 12.2565 11.0831 12.2845 11.0105 12.2885L10.8449 9.2931ZM18.931 7.25649C18.931 6.76587 19.1699 6.31466 19.5576 6.03704L21.3043 8.47612C21.692 8.19845 21.931 7.74718 21.931 7.25649H18.931ZM21.304 6.03647C20.3131 5.32745 18.931 6.03353 18.931 7.25644H21.931C21.931 8.4792 20.5491 9.18519 19.5583 8.47626L21.304 6.03647ZM19.5584 6.03647C20.0803 5.66302 20.782 5.66302 21.304 6.03647L19.5583 8.47626C20.0803 8.84976 20.7821 8.84976 21.3041 8.47626L19.5584 6.03647ZM21.9314 7.25644C21.9314 6.03353 20.5493 5.32745 19.5584 6.03647L21.3041 8.47626C20.3133 9.18519 18.9314 8.4792 18.9314 7.25644H21.9314ZM32.4952 11.6885C32.404 10.2758 31.2149 9.3593 30.0175 9.2931L29.8519 12.2885C29.7793 12.2845 29.7088 12.2565 29.6477 12.2007C29.5816 12.1404 29.511 12.0296 29.5014 11.8818L32.4952 11.6885ZM21.9314 32.4999C21.9314 33.1793 21.4481 33.8669 20.649 33.984L20.2138 31.0158C19.4148 31.1329 18.9314 31.8205 18.9314 32.4999H21.9314ZM20.2134 33.984C19.4143 33.8669 18.931 33.1793 18.931 32.4999H21.931C21.931 31.8205 21.4476 31.1329 20.6486 31.0158L20.2134 33.984ZM20.2184 33.9848C21.1228 34.1145 21.9314 33.4126 21.9314 32.4999H18.9314C18.9314 31.5873 19.7399 30.8854 20.6443 31.0151L20.2184 33.9848ZM21.3048 6.03704C21.6925 6.31466 21.9314 6.76587 21.9314 7.25649H18.9314C18.9314 7.74718 19.1704 8.19845 19.5581 8.47612L21.3048 6.03704ZM20.6439 31.0151C20.503 30.9949 20.3593 30.9948 20.2173 31.0153L20.6451 33.9846C20.503 34.0051 20.3594 34.005 20.2185 33.9848L20.6439 31.0151Z"></path>
<path stroke-linecap="round" stroke-width="1.5" stroke="#0C3D3D" d="M15 20.0878L18.4483 23.75L26.25 16.25"></path>
</svg>
