<svg width="40" height="40" viewBox="0 0 40 40" fill="none" xmlns="http://www.w3.org/2000/svg">
<path d="M20 38.75C30.3553 38.75 38.75 30.3553 38.75 20C38.75 9.64466 30.3553 1.25 20 1.25C9.64466 1.25 1.25 9.64466 1.25 20C1.25 30.3553 9.64466 38.75 20 38.75Z" stroke="#0C3D3D" stroke-width="1.5" stroke-linecap="round" stroke-linejoin="round"></path>
<path d="M12.5 28.75L7.5 33.75" stroke="#0C3D3D" stroke-width="1.5" stroke-linecap="round" stroke-linejoin="round"></path>
<path d="M32.5 6.25L27.5 11.25" stroke="#0C3D3D" stroke-width="1.5" stroke-linecap="round" stroke-linejoin="round"></path>
<path d="M18.1742 7.98487L32.6401 22.4508L26.4875 25.5271L26.2639 25.6389L26.1521 25.8625L23.0758 32.0151L8.60987 17.5492L14.7625 14.4729L14.9861 14.3611L15.0979 14.1375L18.1742 7.98487Z" stroke="#0C3D3D" stroke-width="1.5"></path>
<path d="M22.6181 19.9783C22.8575 19.6854 22.9451 19.3771 22.881 19.0532C22.8203 18.7327 22.6578 18.4404 22.3936 18.1762C22.1529 17.9354 21.8902 17.7867 21.6056 17.7302C21.3209 17.6737 21.0915 17.7326 20.9173 17.9068C20.7462 18.0779 20.6787 18.2892 20.7148 18.5407C20.7542 18.7956 20.8828 19.0984 21.1006 19.4492C21.3968 19.9355 21.5739 20.2299 21.632 20.3323C22.4053 21.6124 22.4482 22.5962 21.7607 23.2837C21.4376 23.6068 21.0503 23.7867 20.5991 23.8233C20.1478 23.8599 19.6981 23.7745 19.25 23.5672C18.8052 23.3632 18.3905 23.0689 18.0059 22.6843C17.7283 22.4067 17.4975 22.1125 17.3134 21.8017C17.1293 21.4908 16.9952 21.1667 16.9113 20.8293C16.8305 20.4887 16.8324 20.139 16.917 19.7801C17.0017 19.4213 17.1764 19.0827 17.4411 18.7645L18.6149 19.9383C18.1733 20.5739 18.2635 21.2027 18.8856 21.8247C19.1631 22.1023 19.4528 22.2842 19.7544 22.3704C20.0561 22.4567 20.3163 22.3905 20.5349 22.1719C20.6141 22.0927 20.6686 22.0047 20.6985 21.9079C20.7285 21.8111 20.7406 21.7187 20.735 21.6307C20.7325 21.5395 20.7069 21.4347 20.6581 21.3163C20.6159 21.198 20.5707 21.0926 20.5227 21.0002C20.4746 20.9078 20.4114 20.7971 20.3331 20.6681C20.1053 20.3073 19.913 19.9913 19.756 19.7203C19.4152 19.1514 19.2314 18.6128 19.2046 18.1045C19.1812 17.5996 19.3548 17.1617 19.7255 16.7911C20.169 16.3476 20.7276 16.187 21.4012 16.3093C22.0813 16.4318 22.7039 16.7757 23.2691 17.3409C23.8577 17.9294 24.2034 18.5603 24.3062 19.2333C24.4121 19.9032 24.2307 20.5328 23.7618 21.122L22.6181 19.9783Z" fill="#0C3D3D"></path>
</svg>
