<svg xmlns="http://www.w3.org/2000/svg" fill="none" viewBox="0 0 40 42" height="42" width="40">
<path stroke-linejoin="round" stroke-linecap="round" stroke-width="1.5" stroke="#0C3D3D" d="M11.7373 27.9199L10 41L19.1768 35.4939C19.4761 35.3143 19.6258 35.2245 19.7855 35.1895C19.9268 35.1584 20.0732 35.1584 20.2145 35.1895C20.3742 35.2245 20.5239 35.3143 20.8232 35.4939L30 41L28.2638 27.9142M28.8518 5.49776C29.1606 6.2448 29.7535 6.8386 30.5001 7.14861L33.1179 8.23297C33.8649 8.54242 34.4585 9.13599 34.7679 9.88309C35.0774 10.6302 35.0774 11.4696 34.7679 12.2167L33.6844 14.8327C33.3748 15.5801 33.3744 16.4204 33.6853 17.1675L34.767 19.7827C34.9204 20.1527 34.9994 20.5494 34.9995 20.9499C34.9995 21.3505 34.9207 21.7471 34.7674 22.1172C34.6141 22.4873 34.3894 22.8235 34.1061 23.1067C33.8228 23.3899 33.4865 23.6145 33.1164 23.7677L30.5005 24.8513C29.7535 25.1602 29.1597 25.7531 28.8497 26.4997L27.7654 29.1175C27.456 29.8646 26.8624 30.4582 26.1154 30.7677C25.3683 31.0771 24.5289 31.0771 23.7818 30.7677L21.1659 29.6841C20.4188 29.3754 19.5797 29.376 18.8331 29.6858L16.2153 30.7686C15.4687 31.0774 14.63 31.0771 13.8836 30.7679C13.1371 30.4587 12.5439 29.8658 12.2342 29.1195L11.1496 26.5009C10.8407 25.7538 10.2478 25.16 9.50127 24.85L6.8835 23.7657C6.13675 23.4564 5.54338 22.8632 5.23382 22.1165C4.92426 21.3698 4.92384 20.5308 5.23266 19.7838L6.3162 17.1678C6.62488 16.4207 6.62425 15.5816 6.31444 14.8349L5.23246 12.2152C5.07905 11.8451 5.00006 11.4485 5 11.0479C4.99994 10.6474 5.0788 10.2507 5.23208 9.88065C5.38537 9.51057 5.61007 9.17433 5.89335 8.89113C6.17663 8.60793 6.51294 8.38333 6.88305 8.23015L9.49895 7.14657C10.2453 6.83796 10.8387 6.2458 11.149 5.50008L12.2333 2.88221C12.5427 2.13512 13.1363 1.54155 13.8833 1.23209C14.6304 0.922636 15.4698 0.922636 16.2169 1.23209L18.8328 2.31567C19.5799 2.62437 20.419 2.62374 21.1656 2.31392L23.7845 1.23377C24.5314 0.92449 25.3706 0.924553 26.1176 1.23395C26.8645 1.54335 27.458 2.13674 27.7675 2.88365L28.8521 5.50229L28.8518 5.49776Z"></path>
</svg>
